<?xml version="1.0" encoding="utf-8"?>
<!-- Uploaded to: SVG Repo, www.svgrepo.com, Generator: SVG Repo Mixer Tools -->
<svg stroke="none" fill="currentColor" width="24" height="24" viewBox="0 0 32 32" version="1.1" xmlns="http://www.w3.org/2000/svg">
<title>apps</title>
<path d="M12 0.75h-8c-1.794 0.002-3.248 1.456-3.25 3.25v8c0.002 1.794 1.456 3.248 3.25 3.25h8c1.794-0.002 3.248-1.456 3.25-3.25v-8c-0.002-1.794-1.456-3.248-3.25-3.25h-0zM12.75 12c-0.001 0.414-0.336 0.749-0.75 0.75h-8c-0.414-0.001-0.749-0.336-0.75-0.75v-8c0.001-0.414 0.336-0.749 0.75-0.75h8c0.414 0.001 0.749 0.336 0.75 0.75v0zM12 16.75h-8c-1.794 0.002-3.248 1.456-3.25 3.25v8c0.002 1.794 1.456 3.248 3.25 3.25h8c1.794-0.002 3.248-1.456 3.25-3.25v-8c-0.002-1.794-1.456-3.248-3.25-3.25h-0zM12.75 28c-0 0.414-0.336 0.75-0.75 0.75h-8c-0.414-0-0.75-0.336-0.75-0.75v-8c0-0.414 0.336-0.75 0.75-0.75h8c0.414 0 0.75 0.336 0.75 0.75v0zM28 0.75h-8c-1.794 0.002-3.248 1.456-3.25 3.25v8c0.002 1.794 1.456 3.248 3.25 3.25h8c1.794-0.002 3.248-1.456 3.25-3.25v-8c-0.002-1.794-1.456-3.248-3.25-3.25h-0zM28.75 12c-0 0.414-0.336 0.75-0.75 0.75h-8c-0.414-0-0.75-0.336-0.75-0.75v-8c0-0.414 0.336-0.75 0.75-0.75h8c0.414 0 0.75 0.336 0.75 0.75v0zM28 16.75h-8c-1.794 0.001-3.249 1.456-3.25 3.25v8c0.001 1.794 1.456 3.249 3.25 3.25h8c1.794-0.001 3.249-1.456 3.25-3.25v-8c-0.001-1.794-1.456-3.249-3.25-3.25h-0zM28.75 28c-0 0.414-0.336 0.75-0.75 0.75h-8c-0.414-0-0.75-0.336-0.75-0.75v0-8c0-0.414 0.336-0.75 0.75-0.75h8c0.414 0 0.75 0.336 0.75 0.75v0z"></path>
</svg>